<svg width="24" height="24" viewBox="0 0 24 24" fill="none" xmlns="http://www.w3.org/2000/svg">
<path d="M21.129 4.34928C20.646 3.82328 19.946 3.54228 19.05 3.51628C16.52 3.43328 14.731 4.79328 13.733 7.55628C13.7071 7.62719 13.7012 7.70383 13.7158 7.77787C13.7305 7.85192 13.7651 7.92054 13.816 7.97628C13.8659 8.03163 13.9302 8.07199 14.0017 8.09284C14.0733 8.11368 14.1492 8.11418 14.221 8.09428C14.509 8.01428 14.793 7.97428 15.068 7.97428C15.437 7.97428 15.928 8.04228 16.171 8.36828C16.359 8.61828 16.384 8.99428 16.247 9.48428C16.132 9.89728 15.536 11.0043 14.798 12.1743C13.9 13.6013 13.404 14.2413 13.261 14.2413C12.787 14.2413 11.074 6.56828 11.027 6.39928C10.535 4.64128 10.289 3.76028 8.69001 3.76028C7.47401 3.75828 4.75801 6.00428 2.52801 7.96128L2.18601 8.26028C2.08233 8.3505 2.01695 8.47686 2.0032 8.61362C1.98945 8.75037 2.02836 8.88722 2.11201 8.99628L2.52701 9.53628C2.60996 9.64578 2.73245 9.71849 2.86831 9.73886C3.00416 9.75923 3.14259 9.72564 3.25401 9.64528L3.27701 9.62828C4.00001 9.11128 4.68001 8.62128 5.19501 8.59428C5.75401 8.56728 6.23901 9.44928 6.81701 11.5493C7.91901 15.6273 9.59201 20.4893 11.31 20.4893C13.104 20.4893 15.245 18.9513 18.013 15.3133C20.518 12.0193 21.859 9.40828 21.946 7.50728C22.01 6.07228 21.736 5.00928 21.129 4.34928Z" fill="black"/>
</svg>
